PathFileType	4	(X/Y/Z)	s08c0203.trc
DataRate	CameraRate	NumFrames	NumMarkers	Units	OrigDataRate	OrigDataStartFrame	OrigNumFrames
200	200	4	50	mm	200	1750	2000
Frame#	Time	racr			lacr			c7			jug			rlel			rdr			llel			ldr			s2			lic			ric			lasi			rasi			rpsi			lpsi			rgt			lgt			rth1			rth2			rth3			rth4			rlfc			rmfc			rsh1			rsh2			rsh3			rsh4			rlmal			rmmal			rcal			rtoe			rmt5			lth1			lth2			lth4			lth3			llfc			lmfc			llmal			lmmal			lcal			lmt5			lsh1			lsh2			lsh3			lsh4			ltoe			SBIKE			LBIKE			RBIKE			
		X1	Y1	Z1	X2	Y2	Z2	X3	Y3	Z3	X4	Y4	Z4	X5	Y5	Z5	X6	Y6	Z6	X7	Y7	Z7	X8	Y8	Z8	X9	Y9	Z9	X10	Y10	Z10	X11	Y11	Z11	X12	Y12	Z12	X13	Y13	Z13	X14	Y14	Z14	X15	Y15	Z15	X16	Y16	Z16	X17	Y17	Z17	X18	Y18	Z18	X19	Y19	Z19	X20	Y20	Z20	X21	Y21	Z21	X22	Y22	Z22	X23	Y23	Z23	X24	Y24	Z24	X25	Y25	Z25	X26	Y26	Z26	X27	Y27	Z27	X28	Y28	Z28	X29	Y29	Z29	X30	Y30	Z30	X31	Y31	Z31	X32	Y32	Z32	X33	Y33	Z33	X34	Y34	Z34	X35	Y35	Z35	X36	Y36	Z36	X37	Y37	Z37	X38	Y38	Z38	X39	Y39	Z39	X40	Y40	Z40	X41	Y41	Z41	X42	Y42	Z42	X43	Y43	Z43	X44	Y44	Z44	X45	Y45	Z45	X46	Y46	Z46	X47	Y47	Z47	X48	Y48	Z48	X49	Y49	Z49	X50	Y50	Z50	
1750	8.7500	491.718178	1381.747033	-68.816122	489.549129	1378.682326	-417.364837	483.047989	1446.443331	-244.297067	440.995982	1293.237384	-234.781804	554.193148	1141.500666	25.171607	749.713167	925.253608	-63.903019	550.394296	1127.354784	-501.335245	753.903086	925.906248	-439.734726	-57.504775	1189.124238	-236.137667	103.288236	1186.769876	-381.620974	100.635227	1208.525367	-68.635426	130.832765	1145.170842	-338.679504	130.830256	1148.436851	-98.590384	-25.194638	1229.560211	-185.696467	-26.305442	1231.579923	-280.098160	28.826583	1082.771313	-39.192641	65.818169	1084.731537	-419.227514	141.018438	940.194957	-32.815863	211.133203	885.262142	-34.734393	243.868682	805.474487	-48.681245	240.513939	907.787648	-40.575148	315.852285	710.658149	-65.141079	298.485120	694.171369	-172.664977	282.277288	581.699351	-33.815357	306.072837	496.473150	-49.579252	283.117516	412.825436	-55.047373	333.448026	500.289384	-79.266270	275.766047	292.206914	-62.676409	288.429511	316.407208	-150.457559	202.964069	250.897041	-108.103502	500.807992	285.752454	-108.887911	416.754756	240.863608	-42.150620	157.808165	1006.597089	-425.565601	249.719671	980.369736	-417.480271	267.468545	1007.338261	-399.115342	311.068053	915.939905	-424.240249	389.233287	811.292294	-404.665244	385.742762	784.805308	-294.629297	85.813587	533.600695	-401.959022	118.522497	529.421371	-318.081775	23.549487	558.732904	-361.727370	132.587519	374.543856	-421.237287	306.701169	716.221489	-427.190231	257.353669	648.608668	-408.987714	178.965741	607.504539	-409.905474	274.666479	636.415591	-377.791829	213.101318	341.133032	-352.361915	-206.067108	914.620792	-230.532391	-10.617847	79.877383	-427.554519	-10.658648	79.797277	-29.347403	
1751	8.7550	492.395964	1382.104468	-69.724385	489.306279	1378.549773	-418.362465	483.198357	1446.414997	-245.402554	441.436463	1293.186129	-235.615423	554.931054	1142.174157	24.831998	749.610322	924.967197	-64.503835	550.155783	1127.157628	-502.157227	753.912563	925.995206	-440.193503	-57.200073	1188.986061	-234.675013	102.650095	1187.041482	-381.203375	102.129733	1207.495682	-67.996603	130.522973	1145.922034	-337.937158	131.774247	1146.695731	-98.057164	-24.542727	1229.137233	-183.892014	-26.268525	1231.699921	-278.173554	29.132836	1081.026732	-38.888419	65.747900	1086.981058	-418.913056	138.080039	936.007577	-32.681828	207.180453	879.362020	-34.649356	237.807163	799.009284	-49.239811	236.734218	901.332494	-40.912633	307.687506	703.314731	-65.749496	288.995978	686.219267	-173.129195	274.744251	574.344901	-33.892133	299.206087	489.256464	-49.685011	276.991973	405.491392	-55.203848	327.065199	493.169041	-79.502716	271.013518	284.462057	-62.610968	283.920485	308.443881	-150.544492	198.415686	244.042535	-108.170458	496.617896	275.411731	-108.734347	412.011046	231.542256	-42.044484	158.763807	1010.758838	-424.901096	251.122022	986.333848	-416.585251	268.286077	1013.521365	-397.951942	313.846202	923.261614	-423.674346	394.141893	819.799833	-404.370570	391.073427	792.550319	-294.097880	90.007118	542.779368	-401.941333	122.705980	538.625303	-318.095041	27.150458	567.458503	-361.748140	137.836691	384.026384	-421.142219	311.905815	724.777769	-426.921123	262.307527	657.239344	-408.853463	183.728381	616.513576	-409.755789	279.471953	644.858639	-377.553912	218.256906	351.176616	-352.428352	-206.096502	914.616486	-230.529047	-10.618748	79.819232	-427.581473	-10.665448	79.788629	-29.334836	
1752	8.7600	493.006274	1382.453928	-70.712315	488.893073	1378.068256	-419.132006	483.355065	1446.378485	-246.493114	441.934829	1293.169076	-236.505907	555.719213	1142.800386	24.400475	749.535333	924.638327	-65.117052	549.891309	1127.004326	-502.990324	753.944058	926.062245	-440.638230	-56.890121	1188.861545	-233.273397	101.782049	1187.179263	-380.342607	103.670384	1206.164134	-67.385707	130.200249	1146.512363	-337.087280	132.582574	1144.903103	-97.582893	-23.741456	1228.662529	-182.188177	-26.250483	1231.686594	-276.251770	29.357932	1079.236909	-38.653212	65.680138	1089.280095	-418.663755	135.143973	932.113999	-32.490700	202.645584	873.503825	-35.101868	231.674246	792.651605	-49.726136	232.989014	895.033129	-41.395873	299.732684	696.436136	-66.516884	279.473909	678.846956	-173.732877	267.150345	567.604683	-34.099066	292.190095	482.767877	-49.714922	270.513719	398.747453	-55.332137	320.135785	486.867926	-79.502397	265.850716	277.410658	-62.514962	278.725139	301.423493	-150.656644	193.421928	237.792844	-108.431026	492.095933	265.309761	-108.541645	406.759847	222.646870	-42.007248	159.659983	1014.913697	-424.250636	252.355689	991.850927	-415.244023	268.973385	1019.759077	-396.992193	316.445145	930.464138	-423.009343	398.953504	828.239459	-404.021184	396.357524	800.303790	-293.673634	94.477437	551.531656	-401.892986	127.036024	547.795570	-318.045404	30.873527	575.775421	-361.954200	143.318059	393.263041	-421.254886	317.182965	733.126968	-426.583399	267.275524	665.706683	-408.526139	188.564463	625.629135	-410.402298	284.461251	653.411956	-377.505091	224.000781	361.030436	-352.380018	-206.214602	914.614626	-230.592229	-10.632828	79.799920	-427.593872	-10.677231	79.777826	-29.345050	
1753	8.7650	493.698261	1382.906137	-71.719255	488.542218	1377.801876	-420.089376	483.471136	1446.337909	-247.617815	442.394407	1293.134406	-237.356457	556.525986	1143.383403	23.968961	749.460375	924.319272	-65.813631	549.634204	1126.853733	-503.865312	753.983239	926.200533	-441.147569	-56.596543	1188.740892	-232.041039	101.139967	1187.382284	-379.698968	105.295170	1204.786950	-66.802294	129.983305	1147.117364	-336.324004	133.345114	1143.038391	-97.131218	-24.865567	1229.101830	-179.297978	-26.538821	1231.878741	-274.356321	29.515772	1077.434475	-38.497146	65.636778	1091.660316	-418.458399	132.193775	928.376037	-32.600851	198.535806	868.370332	-35.080580	225.253798	787.015677	-49.674255	229.200800	889.207735	-41.882562	292.025090	689.968097	-67.302676	270.266251	671.894447	-174.194577	259.492182	561.493811	-34.222254	284.936311	476.852356	-49.844696	263.792009	392.728679	-55.317929	313.048824	481.013244	-79.555501	260.266127	270.834881	-62.522703	274.385182	294.499824	-150.394813	188.126445	232.250289	-108.574424	487.010739	255.894798	-108.271324	401.117607	214.143197	-41.868773	167.421289	1017.750243	-419.380552	253.655426	997.466883	-414.014685	269.644848	1025.712687	-396.023008	318.898648	937.407716	-422.587363	402.806456	836.368550	-402.603923	401.590802	808.044613	-293.392945	99.106898	559.928023	-401.847620	131.586022	556.489144	-317.981960	34.803359	583.468085	-362.024165	149.242769	402.197009	-421.347153	322.472986	741.461295	-426.250688	272.403401	674.279194	-408.414084	193.560291	634.300796	-410.249417	289.490339	661.705928	-377.307929	230.251693	370.760552	-352.389508	-206.106083	914.647710	-230.517280	-10.624670	79.817221	-427.607231	-10.686731	79.782967	-29.333939	
